<svg width="609" height="267" viewBox="0 0 609 267" fill="none" xmlns="http://www.w3.org/2000/svg">
<g filter="url(#filter0_d_8_30)">
<path d="M415.08 123.76C415.507 122.427 416.36 121.76 417.64 121.76C418.92 121.76 420.387 122.853 422.04 125.04C423.747 127.227 424.6 129.12 424.6 130.72C424.6 131.307 423.373 135.227 420.92 142.48C418.467 149.733 416.573 155.467 415.24 159.68C414.493 161.92 413.24 163.04 411.48 163.04C410.413 163.04 409.507 162.667 408.76 161.92C408.067 161.12 407.72 159.893 407.72 158.24C407.72 156.587 408.04 154.24 408.68 151.2C403.187 159.093 398.813 163.04 395.56 163.04C393.853 163.04 391.8 161.947 389.4 159.76C387 157.52 385.8 155.36 385.8 153.28C385.8 148.16 387.24 141.627 390.12 133.68C393.053 125.733 395.8 121.76 398.36 121.76C399.907 121.76 401.267 122.453 402.44 123.84C403.667 125.227 404.28 126.747 404.28 128.4C404.28 129.04 403.613 130.827 402.28 133.76C398.227 142.56 396.2 148.773 396.2 152.4C396.2 152.72 396.333 152.88 396.6 152.88C397.4 152.88 398.893 151.627 401.08 149.12C403.32 146.56 405.8 142.933 408.52 138.24C411.293 133.493 413.48 128.667 415.08 123.76ZM460.066 99.36C461.346 99.36 463.026 100.533 465.106 102.88C467.186 105.173 468.226 107.333 468.226 109.36C468.226 110.373 467.293 114.587 465.426 122C463.56 129.413 462.44 133.893 462.066 135.44C457.8 153.84 454.68 163.04 452.706 163.04C451.586 163.04 450.333 162.373 448.946 161.04C447.56 159.707 446.866 158.4 446.866 157.12C446.866 156.853 446.893 156.64 446.946 156.48C441.613 160.853 437.773 163.04 435.426 163.04C433.133 163.04 430.893 161.813 428.706 159.36C426.573 156.853 425.506 154.587 425.506 152.56C425.506 150.533 425.773 148.293 426.306 145.84C426.893 143.333 427.773 140.693 428.946 137.92C430.12 135.147 431.453 132.56 432.946 130.16C434.493 127.707 436.333 125.707 438.466 124.16C440.653 122.56 442.893 121.76 445.186 121.76C448.6 121.76 451.4 123.493 453.586 126.96C456.466 114.32 457.853 105.92 457.746 101.76C457.746 100.16 458.52 99.36 460.066 99.36ZM436.466 152.88C437.8 152.88 440.04 151.733 443.186 149.44C446.386 147.147 448.76 144.24 450.306 140.72C450.253 140.293 450.226 139.36 450.226 137.92C450.226 136.48 449.746 135.12 448.786 133.84C447.826 132.56 446.946 131.92 446.146 131.92C444.546 131.92 443 132.773 441.506 134.48C440.066 136.187 438.92 138.213 438.066 140.56C436.253 145.52 435.346 149.28 435.346 151.84C435.346 152.267 435.4 152.56 435.506 152.72C435.666 152.827 435.986 152.88 436.466 152.88ZM503.191 99.36C504.471 99.36 506.151 100.533 508.231 102.88C510.311 105.173 511.351 107.333 511.351 109.36C511.351 110.373 510.418 114.587 508.551 122C506.685 129.413 505.565 133.893 505.191 135.44C500.925 153.84 497.805 163.04 495.831 163.04C494.711 163.04 493.458 162.373 492.071 161.04C490.685 159.707 489.991 158.4 489.991 157.12C489.991 156.853 490.018 156.64 490.071 156.48C484.738 160.853 480.898 163.04 478.551 163.04C476.258 163.04 474.018 161.813 471.831 159.36C469.698 156.853 468.631 154.587 468.631 152.56C468.631 150.533 468.898 148.293 469.431 145.84C470.018 143.333 470.898 140.693 472.071 137.92C473.245 135.147 474.578 132.56 476.071 130.16C477.618 127.707 479.458 125.707 481.591 124.16C483.778 122.56 486.018 121.76 488.311 121.76C491.725 121.76 494.525 123.493 496.711 126.96C499.591 114.32 500.978 105.92 500.871 101.76C500.871 100.16 501.645 99.36 503.191 99.36ZM479.591 152.88C480.925 152.88 483.165 151.733 486.311 149.44C489.511 147.147 491.885 144.24 493.431 140.72C493.378 140.293 493.351 139.36 493.351 137.92C493.351 136.48 492.871 135.12 491.911 133.84C490.951 132.56 490.071 131.92 489.271 131.92C487.671 131.92 486.125 132.773 484.631 134.48C483.191 136.187 482.045 138.213 481.191 140.56C479.378 145.52 478.471 149.28 478.471 151.84C478.471 152.267 478.525 152.56 478.631 152.72C478.791 152.827 479.111 152.88 479.591 152.88ZM541.996 123.76C542.316 122.427 543.196 121.76 544.636 121.76C546.076 121.76 547.543 122.667 549.036 124.48C550.583 126.293 551.356 128.347 551.356 130.64C551.356 131.973 550.876 134.08 549.916 136.96C548.956 139.84 548.263 141.893 547.836 143.12C547.463 144.347 546.903 146.027 546.156 148.16C545.41 150.24 544.716 152.187 544.076 154C543.49 155.76 542.663 158.133 541.596 161.12C540.583 164.107 539.65 166.88 538.796 169.44C537.143 174.24 535.116 177.947 532.716 180.56C530.37 183.173 527.303 184.48 523.516 184.48C519.73 184.48 516.343 183.467 513.356 181.44C510.37 179.467 508.876 177.467 508.876 175.44C508.876 174.213 509.41 172.853 510.476 171.36C511.596 169.867 512.53 169.12 513.276 169.12C514.076 169.12 515.09 169.733 516.316 170.96C517.596 172.24 518.903 173.493 520.236 174.72C521.57 176 522.743 176.64 523.756 176.64C524.45 176.64 525.01 176.32 525.436 175.68C525.916 175.04 526.29 174.453 526.556 173.92C526.876 173.44 527.196 172.747 527.516 171.84C527.836 170.987 528.13 170.187 528.396 169.44C528.663 168.693 528.983 167.707 529.356 166.48C529.73 165.253 530.05 164.16 530.316 163.2C531.223 160.32 531.996 157.76 532.636 155.52C530.876 157.813 529.063 159.653 527.196 161.04C525.33 162.373 523.596 163.04 521.996 163.04C520.45 163.04 518.503 161.867 516.156 159.52C513.863 157.12 512.716 154.507 512.716 151.68C512.716 148.8 513.33 144.96 514.556 140.16C515.836 135.36 517.41 131.093 519.276 127.36C521.143 123.627 522.796 121.76 524.236 121.76C525.89 121.76 527.436 122.48 528.876 123.92C530.37 125.307 531.116 126.667 531.116 128C531.116 129.28 530.45 131.36 529.116 134.24C527.836 137.12 526.53 140.267 525.196 143.68C523.863 147.093 523.196 150 523.196 152.4C523.196 152.72 523.33 152.88 523.596 152.88C524.29 152.88 525.756 151.6 527.996 149.04C530.236 146.427 532.743 142.747 535.516 138C538.343 133.2 540.503 128.453 541.996 123.76Z" fill="black"/>
<path d="M346.48 122.96C356.187 124.24 363.92 126.64 369.68 130.16C375.44 133.68 378.32 138.373 378.32 144.24C378.32 150 374.907 155.707 368.08 161.36C361.36 167.013 353.147 171.44 343.44 174.64C333.84 177.84 324.08 179.44 314.16 179.44C304.347 179.44 299.44 177.627 299.44 174C299.44 173.04 302.587 171.813 308.88 170.32C315.28 168.72 322.267 167.067 329.84 165.36C337.413 163.547 344.347 160.72 350.64 156.88C357.04 152.933 360.24 148.4 360.24 143.28C360.24 140.507 358.32 138.267 354.48 136.56C350.64 134.747 346.373 133.467 341.68 132.72C329.307 130.907 323.12 128.773 323.12 126.32C323.12 125.467 323.28 124.827 323.6 124.4C324.453 122.907 327.173 120.827 331.76 118.16C336.347 115.493 340.987 112.88 345.68 110.32C350.48 107.76 354.853 104.4 358.8 100.24C362.747 96.08 364.72 91.8667 364.72 87.6C364.72 82.5867 362 80.08 356.56 80.08C352.187 80.08 346.64 81.84 339.92 85.36C333.2 88.7733 329.36 90.48 328.4 90.48C327.547 90.48 325.893 89.36 323.44 87.12C320.987 84.7733 319.76 83.0133 319.76 81.84C319.76 78.64 324.08 75.3333 332.72 71.92C341.467 68.5067 349.2 66.8 355.92 66.8C362.64 66.8 368.293 69.0933 372.88 73.68C377.573 78.2667 379.92 83.5467 379.92 89.52C379.92 95.3867 376.56 101.413 369.84 107.6C363.12 113.68 355.333 118.8 346.48 122.96Z" fill="black"/>
<path d="M111.117 177.783C104.623 177.783 98.7393 176.636 93.4658 174.341C88.1924 172.046 83.9688 168.628 80.7949 164.087C77.6699 159.546 76.1074 153.906 76.1074 147.168C76.1074 142.383 77.1328 138.135 79.1836 134.424C81.2344 130.713 84.042 127.466 87.6064 124.683C91.1221 121.899 95.2236 119.604 99.9111 117.798C104.647 115.991 109.677 114.746 114.999 114.062C110.897 110.986 108.017 107.983 106.356 105.054C104.696 102.075 103.866 99.1455 103.866 96.2646C103.866 92.0654 105.404 88.3057 108.48 84.9854C111.557 81.6162 115.536 78.7598 120.419 76.416C125.058 74.2676 130.355 72.5586 136.312 71.2891C142.27 69.9707 148.349 69.3115 154.55 69.3115C159.97 69.3115 164.95 70.0928 169.491 71.6553C174.032 73.1689 177.768 75.4883 180.697 78.6133C183.627 81.7383 185.336 85.7422 185.824 90.625C185.824 92.7734 184.799 94.8486 182.748 96.8506C180.746 98.8037 177.89 99.7803 174.179 99.7803C172.079 99.7803 170.785 99.3164 170.297 98.3887C169.857 97.4121 169.638 96.2158 169.638 94.7998C169.638 90.2588 168.49 86.9385 166.195 84.8389C163.9 82.7393 159.774 81.6895 153.817 81.6895C150.253 81.6895 146.542 82.0801 142.685 82.8613C138.827 83.5938 135.287 84.668 132.064 86.084C128.842 87.5488 126.181 89.2822 124.081 91.2842C122.03 93.2861 121.005 95.5322 121.005 98.0225C121.005 101.929 122.152 105.103 124.447 107.544C126.742 109.985 129.696 111.768 133.31 112.891C136.972 114.014 140.854 114.575 144.955 114.575C146.518 114.575 147.934 114.941 149.203 115.674C150.473 116.406 151.107 117.285 151.107 118.311C151.107 120.117 148.935 121.655 144.589 122.925C142.196 123.608 138.998 124.17 134.994 124.609C131.039 125.049 126.034 125.269 119.979 125.269C115.683 125.269 111.459 126.099 107.309 127.759C103.207 129.419 99.7891 131.982 97.0547 135.449C94.3691 138.916 93.0264 143.359 93.0264 148.779C93.0264 151.27 93.7588 153.809 95.2236 156.396C96.6885 158.984 99.1055 161.157 102.475 162.915C105.844 164.673 110.36 165.552 116.024 165.552C120.224 165.552 124.276 165.186 128.183 164.453C132.089 163.672 135.458 162.695 138.29 161.523C141.073 160.449 143.417 159.229 145.321 157.861C147.177 156.494 148.861 155.249 150.375 154.126C151.938 153.003 153.598 152.051 155.355 151.27C157.064 150.537 159.164 150.171 161.654 150.171C166.049 150.171 168.246 152.1 168.246 155.957C168.246 157.861 166.732 160.083 163.705 162.622C160.727 165.161 156.698 167.529 151.62 169.727C146.396 171.973 140.268 173.877 133.236 175.439C126.205 177.002 118.832 177.783 111.117 177.783Z" fill="black"/>
<path d="M194 121.76C195.387 121.76 196.72 122.267 198 123.28C199.333 124.24 200 125.253 200 126.32C200 128.24 198.4 132.693 195.2 139.68C192.053 146.667 189.12 152.293 186.4 156.56C183.733 160.827 181.653 162.96 180.16 162.96C179.36 162.96 178.187 162.427 176.64 161.36C175.147 160.293 174.187 159.227 173.76 158.16C172.48 155.067 170.933 149.36 169.12 141.04C167.307 132.667 166.4 127.36 166.4 125.12C166.4 122.88 167.147 121.76 168.64 121.76C170.453 121.76 172.32 122.48 174.24 123.92C177.44 126.373 179.227 129.653 179.6 133.76C179.76 135.68 179.893 138.053 180 140.88C180.107 143.653 180.347 146.053 180.72 148.08C182 145.627 183.573 142 185.44 137.2C187.307 132.347 188.907 128.56 190.24 125.84C191.627 123.12 192.88 121.76 194 121.76ZM235.59 136.72C235.59 139.333 233.803 141.68 230.23 143.76C226.71 145.84 223.083 146.88 219.35 146.88C215.617 146.88 212.55 146.613 210.15 146.08C209.67 147.52 209.43 148.96 209.43 150.4C209.43 151.84 209.67 152.88 210.15 153.52C210.63 154.107 211.83 154.4 213.75 154.4C217.75 154.4 221.163 154.027 223.99 153.28C226.87 152.533 228.363 152.16 228.47 152.16C230.657 152.16 231.75 152.88 231.75 154.32C231.75 156.4 230.017 158.373 226.55 160.24C223.137 162.107 219.163 163.04 214.63 163.04C210.15 163.04 206.55 161.627 203.83 158.8C201.11 155.973 199.75 152.64 199.75 148.8C199.75 144.907 200.87 140.853 203.11 136.64C205.403 132.427 208.257 128.907 211.67 126.08C215.083 123.2 218.47 121.76 221.83 121.76C225.243 121.76 228.39 123.44 231.27 126.8C234.15 130.107 235.59 133.413 235.59 136.72ZM226.31 135.44C226.31 134.907 225.75 134.133 224.63 133.12C223.51 132.107 222.443 131.6 221.43 131.6C220.47 131.6 219.217 132.32 217.67 133.76C216.123 135.147 214.657 136.96 213.27 139.2C213.75 139.253 214.443 139.28 215.35 139.28C222.657 139.28 226.31 138 226.31 135.44ZM268.253 121.76C271.026 121.76 273.453 123.013 275.533 125.52C277.666 127.973 278.733 130.613 278.733 133.44C278.733 137.973 277.986 142.72 276.493 147.68C275.053 152.587 273.453 156.373 271.693 159.04C269.986 161.707 268.226 163.04 266.413 163.04C264.653 163.04 263.773 161.787 263.773 159.28C263.773 157.36 264.653 153.493 266.413 147.68C267.746 142.88 268.413 139.44 268.413 137.36C268.413 135.28 268.146 134.24 267.613 134.24C266.919 134.24 266.226 134.587 265.533 135.28C264.893 135.973 264.359 136.587 263.933 137.12C263.506 137.653 262.999 138.347 262.413 139.2C261.879 140 261.399 140.747 260.973 141.44C260.599 142.08 260.093 142.933 259.453 144C258.866 145.013 258.386 145.867 258.013 146.56C257.639 147.2 257.159 148.053 256.573 149.12C251.613 158.4 247.719 163.04 244.893 163.04C243.773 163.04 242.359 162.08 240.653 160.16C238.946 158.187 238.093 156.747 238.093 155.84C238.093 155.253 238.466 154 239.213 152.08C240.013 150.107 240.573 148.613 240.893 147.6C241.266 146.533 241.559 145.413 241.773 144.24C242.039 143.067 242.253 141.813 242.413 140.48C242.573 139.093 242.679 138.027 242.733 137.28C242.839 136.533 242.946 135.36 243.053 133.76C243.533 126.827 243.933 122.987 244.253 122.24C244.626 121.493 245.026 121.12 245.453 121.12C247.479 121.12 249.426 121.973 251.293 123.68C253.159 125.333 254.093 126.853 254.093 128.24C254.093 131.547 253.239 136.293 251.533 142.48C254.999 136.4 258.146 131.44 260.973 127.6C263.853 123.707 266.279 121.76 268.253 121.76ZM303.829 131.28C303.403 132.72 302.763 134.747 301.909 137.36C301.109 139.92 300.096 143.147 298.869 147.04C297.696 150.933 297.109 153.013 297.109 153.28C297.109 153.493 297.536 153.6 298.389 153.6C299.296 153.6 301.403 153.013 304.709 151.84C308.016 150.613 309.963 150 310.549 150C311.883 150 312.549 150.907 312.549 152.72C312.549 154.533 310.763 156.72 307.189 159.28C303.616 161.787 299.883 163.04 295.989 163.04C294.283 163.04 292.256 162.107 289.909 160.24C287.563 158.373 286.389 156.48 286.389 154.56C286.389 152.96 287.189 149.6 288.789 144.48C290.443 139.307 291.563 135.76 292.149 133.84C290.069 134.427 288.496 134.72 287.429 134.72C286.363 134.72 285.243 134 284.069 132.56C282.896 131.067 282.309 129.653 282.309 128.32C282.309 126.613 286.443 125.173 294.709 124C295.723 119.04 296.229 114.747 296.229 111.12C296.229 109.52 297.029 108.72 298.629 108.72C300.016 108.72 301.776 109.573 303.909 111.28C306.096 112.933 307.189 114.587 307.189 116.24C307.189 117.84 306.843 120.107 306.149 123.04C308.709 122.933 310.656 122.88 311.989 122.88C315.989 122.88 317.989 123.787 317.989 125.6C317.989 126.773 316.816 127.787 314.469 128.64C312.176 129.44 308.629 130.32 303.829 131.28Z" fill="black"/>
</g>
<defs>
<filter id="filter0_d_8_30" x="72.1074" y="66.8" width="483.249" height="125.68" filterUnits="userSpaceOnUse" color-interpolation-filters="sRGB">
<feFlood flood-opacity="0" result="BackgroundImageFix"/>
<feColorMatrix in="SourceAlpha" type="matrix" values="0 0 0 0 0 0 0 0 0 0 0 0 0 0 0 0 0 0 127 0" result="hardAlpha"/>
<feOffset dy="4"/>
<feGaussianBlur stdDeviation="2"/>
<feComposite in2="hardAlpha" operator="out"/>
<feColorMatrix type="matrix" values="0 0 0 0 0 0 0 0 0 0 0 0 0 0 0 0 0 0 0.25 0"/>
<feBlend mode="normal" in2="BackgroundImageFix" result="effect1_dropShadow_8_30"/>
<feBlend mode="normal" in="SourceGraphic" in2="effect1_dropShadow_8_30" result="shape"/>
</filter>
</defs>
</svg>
